<svg xmlns="http://www.w3.org/2000/svg" viewBox="0 0 800 500" font-family="ui-monospace, monospace">
  <rect width="800" height="500" fill="#0b0b0e"/>
  <g stroke="#fff" stroke-opacity="0.04">
    <path d="M0 100H800M0 200H800M0 300H800M0 400H800"/>
    <path d="M100 0V500M200 0V500M300 0V500M400 0V500M500 0V500M600 0V500M700 0V500"/>
  </g>
  <g fill="#fff" fill-opacity="0.035">
    <path d="M-100 500 L200 -50 L260 -50 L-40 500 Z"/>
    <path d="M40 500 L340 -50 L380 -50 L80 500 Z"/>
  </g>
  <text x="56" y="86" font-size="18" fill="#8a8a90" letter-spacing="5">[ 01 — LIVE DEMO ]</text>
  <text x="52" y="170" font-family="Inter, system-ui, sans-serif" font-size="60" font-weight="800" fill="#ffffff" letter-spacing="-3">Pharmacy</text>
  <text x="52" y="234" font-family="Inter, system-ui, sans-serif" font-size="60" font-weight="800" fill="#ffffff" letter-spacing="-3" opacity="0.45">App</text>
  <rect x="560" y="118" width="182" height="304" rx="26" fill="#0f0f13" stroke="#fff" stroke-opacity="0.18"/>
  <rect x="585" y="148" width="132" height="14" rx="7" fill="#fff" fill-opacity="0.18"/>
  <rect x="585" y="180" width="132" height="82" rx="8" fill="#fff" fill-opacity="0.08"/>
  <rect x="585" y="278" width="86" height="12" rx="6" fill="#fff" fill-opacity="0.16"/>
  <rect x="585" y="300" width="132" height="12" rx="6" fill="#fff" fill-opacity="0.10"/>
  <rect x="585" y="322" width="110" height="12" rx="6" fill="#fff" fill-opacity="0.10"/>
  <circle cx="651" cy="392" r="16" fill="none" stroke="#fff" stroke-opacity="0.2"/>
  <text x="56" y="452" font-size="14" fill="#5a5a62" letter-spacing="3">DEMO PREVIEW — REPLACE WITH REAL SCREENSHOT</text>
</svg>
